<svg xmlns="http://www.w3.org/2000/svg" viewBox="0 0 1200 720" fill="none">
  <rect width="1200" height="720" rx="40" fill="#F7F7FA"/>
  <rect x="40" y="40" width="1120" height="640" rx="32" fill="white" stroke="#E8E8EE" stroke-width="4"/>
  <path d="M140 176H1060" stroke="#E9E9EE" stroke-width="4"/>
  <path d="M140 270H1060" stroke="#E9E9EE" stroke-width="4"/>
  <path d="M140 364H1060" stroke="#E9E9EE" stroke-width="4"/>
  <path d="M140 458H1060" stroke="#E9E9EE" stroke-width="4"/>
  <path d="M140 552H1060" stroke="#E9E9EE" stroke-width="4"/>
  <rect x="196" y="438" width="88" height="116" rx="22" fill="#111216" opacity=".18"/>
  <rect x="344" y="374" width="88" height="180" rx="22" fill="#FF2433" opacity=".45"/>
  <rect x="492" y="298" width="88" height="256" rx="22" fill="#FF2433" opacity=".65"/>
  <rect x="640" y="220" width="88" height="334" rx="22" fill="#FF2433" opacity=".82"/>
  <rect x="788" y="148" width="88" height="406" rx="22" fill="#FF2433"/>
  <path d="M172 480C248 462 320 420 394 388C464 358 534 312 612 320C680 326 724 222 804 232C884 242 938 170 1024 124" stroke="#111216" stroke-width="12" stroke-linecap="round" stroke-linejoin="round"/>
  <circle cx="394" cy="388" r="12" fill="#111216"/>
  <circle cx="612" cy="320" r="12" fill="#111216"/>
  <circle cx="804" cy="232" r="12" fill="#111216"/>
  <circle cx="1024" cy="124" r="12" fill="#111216"/>
  <text x="92" y="108" fill="#6A7180" font-family="Arial, Helvetica, sans-serif" font-size="28">성과 차트 / 수치 그래프 교체</text>
</svg>